<?xml version="1.0" encoding="utf-8"?>
<!-- Generator: Adobe Illustrator 27.5.0, SVG Export Plug-In . SVG Version: 6.00 Build 0)  -->
<svg version="1.1" xmlns="http://www.w3.org/2000/svg" xmlns:xlink="http://www.w3.org/1999/xlink" x="0px" y="0px"
	 viewBox="0 0 1757.33 368" style="enable-background:new 0 0 1757.33 368;" xml:space="preserve">
<style type="text/css">
	.st0{fill:#FFFFFF;}
	.st1{fill:#ED1C24;}
</style>
<g id="Background">
</g>
<g id="Layer_1">
	<path class="st0" d="M261.38,72.4v189.66c0,22.52,0.35,55.59,0.7,67.56H156.88c-1.06-5.63-1.76-12.67-2.11-17.24
		c-15.48,16.54-30.26,22.52-57.35,22.52c-57.35,0-85.86-45.04-85.86-99.58c0-62.28,38.35-98.17,91.13-98.17
		c30.61,0,44.69,9.5,51.37,16.54V72.4H261.38z M139.28,274.02c15.48,0,19-14.43,19-39.06c0-22.87-3.52-36.59-18.3-36.59
		c-13.37,0-19.35,14.78-19.35,36.95C120.64,257.48,125.21,274.02,139.28,274.02z"/>
	<path class="st0" d="M396.14,255.37c0,16.54,5.63,27.09,19,27.09c12.67,0,16.54-5.63,19.35-11.96h99.23
		c-9.15,27.45-29.91,64.04-119.63,64.04c-97.12,0-123.86-50.32-123.86-99.93c0-51.02,33.08-97.82,123.51-97.82
		c90.78,0,121.39,52.43,121.39,99.23v19.35H396.14z M434.84,212.09c0-16.19-4.93-26.04-19-26.04c-13.37,0-19.7,8.09-19.7,26.04
		H434.84z"/>
	<path class="st0" d="M650.19,141.72c8.09,38,15.48,74.6,21.82,117.88h2.11c4.22-30.96,11.61-78.82,17.95-117.88h106.62l-66.5,187.9
		H602.33l-66.5-187.9H650.19z"/>
	<path class="st0" d="M837.72,329.61V200.83h-24.98v-59.11h24.98v-0.35c0-57.71,38-72.49,90.43-72.49c11.61,0,22.87,0.7,35.89,3.17
		v50.67c-3.87-0.35-5.28-0.35-7.74-0.35c-8.45,0-11.26,4.57-11.26,11.61v7.74h29.56v59.11h-29.56v128.78H837.72z"/>
	<path class="st0" d="M993.95,329.61V72.4h106.97v257.21H993.95z"/>
	<path class="st0" d="M1477.46,141.72c8.44,73.54,9.5,97.47,11.61,118.58h2.11c4.22-21.82,8.8-55.95,19-118.58h94.3
		c9.15,64.39,13.37,90.78,16.89,116.82h2.11c1.76-21.46,5.28-56.65,12.32-116.82h105.21l-59.11,187.9h-114
		c-7.74-44.69-10.91-71.78-14.43-94.65h-2.11c-2.46,18.3-7.74,52.78-16.54,94.65h-115.06l-56.3-187.9H1477.46z"/>
	<path id="XMLID_178_" class="st1" d="M1368.13,175.47c-1.46-3.96-3.09-7.82-4.9-11.59c14.43-23.14,19.21-52.34,12.09-78.73
		c-8.77-32.5-34.28-58.61-66.57-68.12c12.79,9.55,22.88,23.15,26.55,38.69c3.67,15.54,0.4,32.94-10.03,45.03
		c-10.43,12.09-28.2,17.87-43.29,12.68c0.37,0.21,0.74,0.43,1.11,0.64c-0.38-0.2-0.75-0.41-1.11-0.64c0,0,12.09-2.48,20.83-11.17
		c-18.05-9.1-38.44-14.23-60.03-14.23c-21.59,0-41.98,5.13-60.03,14.23c8.74,8.69,20.83,11.17,20.83,11.17
		c-0.36,0.23-0.73,0.44-1.11,0.64c0.37-0.21,0.74-0.43,1.11-0.64c-15.1,5.19-32.86-0.6-43.29-12.68
		c-10.43-12.09-13.7-29.49-10.03-45.03s13.76-29.14,26.55-38.69c-32.29,9.5-57.8,35.62-66.57,68.12
		c-7.12,26.39-2.34,55.59,12.09,78.73c-1.81,3.77-3.45,7.64-4.9,11.59c-6.91-11.41-19.68-20.83-32.86-19.11
		c10.01,6.88,14.99,19.19,16.68,31.22c1.7,12.03,0.66,24.27,1.46,36.4c0.77,11.76,3.58,23.98,11.27,32.84
		c15.47,56.64,67.28,98.27,128.82,98.27c61.54,0,113.35-41.63,128.82-98.27c7.69-8.86,10.5-21.08,11.27-32.84
		c0.8-12.12-0.24-24.37,1.46-36.4c1.69-12.03,6.67-24.34,16.68-31.22C1387.81,154.64,1375.04,164.05,1368.13,175.47z
		 M1282.61,210.15c6.41-5.82,17.28-9.29,27.45-13.45c10.68-4.37,14.54-5.93,17.95-9.25c0,0-15.06,37.63-59.62,45.39
		C1268.38,232.84,1271.32,220.39,1282.61,210.15z M1217.16,232.84c-44.56-7.76-59.62-45.39-59.62-45.39
		c3.41,3.31,7.26,4.88,17.95,9.25c10.17,4.16,21.03,7.63,27.45,13.45C1214.22,220.39,1217.16,232.84,1217.16,232.84z
		 M1276.17,326.71c-6.26-8.65-12.57-13.18-12.57-13.18s0.01,0.01,0.02,0.03c4.02,7.62-0.96,16.88-9.52,17.76
		c-3.72,0.38-7.5,0.58-11.33,0.58c-3.82,0-7.6-0.2-11.33-0.58c-8.57-0.88-13.55-10.15-9.52-17.76c0.01-0.02,0.02-0.03,0.02-0.03
		s-6.31,4.52-12.57,13.18c-38.56-12.35-67.81-45.51-74.52-86.28c14.27,9.87,29.96,17.83,46.69,23.53
		c8.38,18.08,21.78,27.7,21.78,27.7s-2.51-4.68-4.88-12.03c-1.64-5.09,2.81-10.05,8.06-9.04c11.74,2.27,23.87,3.46,36.27,3.46
		c12.4,0,24.53-1.19,36.27-3.46c5.25-1.02,9.7,3.95,8.06,9.04c-2.37,7.35-4.88,12.03-4.88,12.03s13.4-9.61,21.78-27.7
		c16.74-5.69,32.42-13.66,46.69-23.53C1343.98,281.2,1314.73,314.36,1276.17,326.71z"/>
</g>
</svg>
